<svg xmlns="http://www.w3.org/2000/svg" version="1.1" xmlns:xlink="http://www.w3.org/1999/xlink" width="512" height="512" x="0" y="0" viewBox="0 0 64 64" style="enable-background:new 0 0 512 512" xml:space="preserve" fill-rule="evenodd" class=""><g><path fill="#e2e8f0" d="M13.997 11.996a6 6 0 0 0-5.998 5.997v37.98a5.997 5.997 0 0 0 5.998 5.997H39.99a6 6 0 0 0 5.998-5.997 2 2 0 0 0-3.998 0 2 2 0 0 1-2 2l-25.994-.001a2 2 0 0 1-2-2V17.994a2 2 0 0 1 2-2 2 2 0 0 0 0-3.997" opacity="1" data-original="#303030" class=""></path><path fill="#00a8ff" d="M55.99 7.993a5.997 5.997 0 0 0-5.999-5.997H23.997a6 6 0 0 0-5.998 5.997v37.98a5.997 5.997 0 0 0 5.998 5.997H49.99a6 6 0 0 0 5.998-5.997zm-4 0v37.98a2 2 0 0 1-2 2l-25.993-.001a2 2 0 0 1-2-2V7.994a2 2 0 0 1 2-2l25.994.001a2 2 0 0 1 2 2" opacity="1" data-original="#00a8ff" class=""></path></g></svg>