<svg xmlns="http://www.w3.org/2000/svg" version="1.1" xmlns:xlink="http://www.w3.org/1999/xlink" width="512" height="512" x="0" y="0" viewBox="0 0 512 512" style="enable-background:new 0 0 512 512" xml:space="preserve" class=""><g><path d="M443.733 8.533v47.701l-65.792 65.707c-3.328 3.328-3.328 8.789 0 12.117 1.707 1.621 3.84 2.475 6.059 2.475s4.352-.853 6.059-2.475l65.707-65.792h47.701A8.536 8.536 0 0 0 512 59.733v-51.2A8.536 8.536 0 0 0 503.467 0h-51.2c-4.711 0-8.534 3.823-8.534 8.533m51.2 42.667H460.8V17.067h34.133z" fill="#e2e8f0" opacity="1" data-original="#000000" class=""></path><path d="M486.4 17.067h8.533V51.2H486.4z" style="" fill="#4294ff" data-original="#a60916" class="" opacity="1"></path><path d="M460.8 17.067h25.6V51.2h-25.6z" style="" fill="#376cfb" data-original="#c90006" class="" opacity="1"></path><path d="M253.525 258.475c-3.328-3.328-8.789-3.328-12.117 0L56.235 443.733H8.533A8.536 8.536 0 0 0 0 452.266v51.2C0 508.177 3.823 512 8.533 512h51.2a8.536 8.536 0 0 0 8.533-8.533v-47.701l185.259-185.173c3.328-3.329 3.328-8.79 0-12.118M51.2 494.933H17.067V460.8H51.2z" fill="#e2e8f0" opacity="1" data-original="#000000" class=""></path><path d="M42.667 460.8H51.2v34.133h-8.533z" style="" fill="#4294ff" data-original="#a60916" class="" opacity="1"></path><path d="M17.067 460.8h25.6v34.133h-25.6z" style="" fill="#376cfb" data-original="#c90006" class="" opacity="1"></path><path d="m343.834 156.1-68.267 68.267a8.523 8.523 0 0 0 0 12.066c1.664 1.664 3.849 2.5 6.033 2.5s4.369-.836 6.033-2.5l68.267-68.267a8.523 8.523 0 0 0 0-12.066 8.525 8.525 0 0 0-12.066 0" fill="#e2e8f0" opacity="1" data-original="#000000" class=""></path></g></svg>