<svg xmlns="http://www.w3.org/2000/svg" version="1.1" xmlns:xlink="http://www.w3.org/1999/xlink" width="512" height="512" x="0" y="0" viewBox="0 0 512 512" style="enable-background:new 0 0 512 512" xml:space="preserve" class=""><g><path fill="#376cfb" d="M374.328 50.895H73.246c-11.574 0-21.039 9.468-21.039 21.039v69.968h119.949a21.88 21.88 0 0 1 15.418 6.387l70.598 75.594a21.89 21.89 0 0 1 6.383 15.418v250.015c0 8.368-6.782 15.153-15.153 15.153h124.926c11.57 0 21.04-9.469 21.04-21.04V71.935c0-11.57-9.47-21.04-21.04-21.04m0 0" opacity="1" data-original="#ffaa5c" class=""></path><path fill="#376cfb" d="M294.223 489.316V239.301a21.87 21.87 0 0 0-6.387-15.418l-70.598-75.594a21.88 21.88 0 0 0-15.418-6.387h-29.663999999999998a21.87 21.87 0 0 1 15.414 6.387l70.598 75.594a21.87 21.87 0 0 1 6.387 15.418v250.015c0 8.368-6.785 15.153-15.153 15.153h29.668c8.368 0 15.153-6.785 15.153-15.153M102.91 50.895H73.242c-11.57 0-21.039 9.468-21.039 21.039v69.968h29.668V71.934c0-11.57 9.469-21.04 21.04-21.04m0 0" opacity="1" data-original="#ff9838" class=""></path><path fill="#4f66d1" d="M239.285 39.746v-11.8c0-11.262-8.387-20.477-18.637-20.477-10.253 0-18.64 9.215-18.64 20.476v11.801zm0 0" opacity="1" data-original="#4f66d1" class=""></path><path fill="#314dca" d="M232.648 12.32c-3.25-3.02-7.437-4.851-12-4.851-10.253 0-18.64 9.215-18.64 20.476v11.801h24v-11.8c0-6.25 2.59-11.864 6.64-15.626m0 0" opacity="1" data-original="#314dca"></path><path fill="#6c7fd9" d="M288.457 36.848h-129.34c-5.93 0-10.781 4.847-10.781 10.777v6.54c0 5.925 4.851 10.776 10.781 10.776h129.34c5.93 0 10.777-4.851 10.777-10.777v-6.539c0-5.926-4.847-10.777-10.777-10.777m0 0" opacity="1" data-original="#6c7fd9"></path><path fill="#4f66d1" d="M288.457 46.484h-129.34c-3.73 0-7.027-1.922-8.965-4.82a10.7 10.7 0 0 0-1.816 5.961v6.54c0 5.925 4.851 10.776 10.781 10.776h129.34c5.93 0 10.777-4.851 10.777-10.777v-6.539c0-2.2-.668-4.25-1.812-5.96-1.938 2.898-5.238 4.82-8.965 4.82m0 0" opacity="1" data-original="#4f66d1" class=""></path><path fill="#d9edff" d="M22.676 504.469h231.726c8.368 0 15.153-6.785 15.153-15.153V234.301a21.8 21.8 0 0 0-6.387-15.418l-75.594-75.594a21.8 21.8 0 0 0-15.418-6.387H22.676c-8.367 0-15.153 6.782-15.153 15.149v337.265c0 8.368 6.786 15.153 15.153 15.153m0 0" opacity="1" data-original="#d9edff" class=""></path><path fill="#b4dbff" d="M37.191 489.316V152.055c0-8.371 6.786-15.153 15.153-15.153H22.676c-8.367 0-15.153 6.782-15.153 15.153v337.261c0 8.368 6.786 15.153 15.153 15.153h29.668c-8.367 0-15.153-6.785-15.153-15.153m0 0" opacity="1" data-original="#b4dbff" class=""></path><path fill="#6c7fd9" d="M172.156 136.902a21.8 21.8 0 0 1 15.418 6.387l75.594 75.594a21.8 21.8 0 0 1 6.387 15.418v.418h-85.79c-6.64 0-12.027-5.383-12.027-12.028v-85.789zm0 0" opacity="1" data-original="#6c7fd9"></path><path fill="#4f66d1" d="M201.406 222.691v-65.57l-13.832-13.832a21.8 21.8 0 0 0-15.418-6.387h-.418v85.79c0 6.64 5.387 12.027 12.028 12.027h29.668c-6.645 0-12.028-5.387-12.028-12.028m0 0" opacity="1" data-original="#4f66d1" class=""></path><path fill="#60b8ff" d="M201.883 297.973H73.398c-6.199 0-11.226-5.028-11.226-11.23 0-6.2 5.027-11.227 11.226-11.227h128.485c6.203 0 11.23 5.027 11.23 11.226 0 6.203-5.027 11.23-11.23 11.23M201.883 348.652H73.398c-6.199 0-11.226-5.027-11.226-11.23 0-6.2 5.027-11.227 11.226-11.227h128.485c6.203 0 11.23 5.028 11.23 11.227 0 6.203-5.027 11.23-11.23 11.23M201.883 399.332H73.398c-6.199 0-11.226-5.027-11.226-11.23 0-6.2 5.027-11.227 11.226-11.227h128.485c6.203 0 11.23 5.027 11.23 11.227 0 6.203-5.027 11.23-11.23 11.23M201.883 450.012H73.398c-6.199 0-11.226-5.028-11.226-11.227 0-6.203 5.027-11.23 11.226-11.23h128.485c6.203 0 11.23 5.027 11.23 11.23 0 6.2-5.027 11.227-11.23 11.227m0 0" opacity="1" data-original="#60b8ff" class=""></path><path fill="#22a7ff" d="M209.39 278.41a11.18 11.18 0 0 1-7.507 2.895H73.398c-2.89 0-5.515-1.102-7.503-2.895-2.282 2.055-3.723 5.024-3.723 8.332 0 6.203 5.027 11.23 11.226 11.23h128.489c6.199 0 11.226-5.027 11.226-11.23 0-3.308-1.441-6.277-3.722-8.332M209.39 329.09a11.18 11.18 0 0 1-7.507 2.894H73.398c-2.89 0-5.515-1.101-7.503-2.894-2.282 2.055-3.723 5.023-3.723 8.332 0 6.203 5.027 11.23 11.226 11.23h128.489c6.199 0 11.226-5.027 11.226-11.23 0-3.309-1.441-6.277-3.722-8.332M209.39 379.77a11.18 11.18 0 0 1-7.507 2.894H73.398c-2.89 0-5.515-1.102-7.503-2.894-2.282 2.054-3.723 5.023-3.723 8.332 0 6.203 5.027 11.23 11.226 11.23h128.489c6.199 0 11.226-5.027 11.226-11.23 0-3.309-1.441-6.278-3.722-8.332M209.39 430.45a11.18 11.18 0 0 1-7.507 2.894H73.398c-2.89 0-5.515-1.102-7.503-2.895a11.19 11.19 0 0 0-3.723 8.336c0 6.2 5.027 11.227 11.226 11.227h128.489c6.199 0 11.226-5.028 11.226-11.227 0-3.312-1.441-6.281-3.722-8.336m0 0" opacity="1" data-original="#22a7ff" class=""></path><g fill="#231f20"><path d="M73.375 305.504h128.484c10.325 0 18.727-8.402 18.727-18.727 0-10.328-8.399-18.73-18.727-18.73H73.375c-10.328 0-18.73 8.402-18.73 18.73 0 10.325 8.402 18.727 18.73 18.727m0-22.453h128.484a3.73 3.73 0 0 1 3.727 3.726 3.73 3.73 0 0 1-3.727 3.727H73.375a3.73 3.73 0 0 1-3.73-3.727 3.73 3.73 0 0 1 3.73-3.726M73.375 356.184h128.484c10.325 0 18.727-8.403 18.727-18.727 0-10.328-8.399-18.73-18.727-18.73H73.375c-10.328 0-18.73 8.402-18.73 18.73 0 10.324 8.402 18.727 18.73 18.727m0-22.457h128.484a3.73 3.73 0 0 1 3.727 3.73 3.73 3.73 0 0 1-3.727 3.727H73.375a3.73 3.73 0 0 1-3.73-3.727 3.733 3.733 0 0 1 3.73-3.73M73.375 406.863h128.484c10.325 0 18.727-8.402 18.727-18.73 0-10.324-8.399-18.727-18.727-18.727H73.375c-10.328 0-18.73 8.403-18.73 18.727 0 10.328 8.402 18.73 18.73 18.73m0-22.457h128.484a3.73 3.73 0 0 1 3.727 3.73 3.73 3.73 0 0 1-3.727 3.727H73.375a3.73 3.73 0 0 1-3.73-3.726 3.733 3.733 0 0 1 3.73-3.73M73.375 457.543h46.742c4.14 0 7.5-3.355 7.5-7.5s-3.36-7.5-7.5-7.5H73.375a3.73 3.73 0 0 1-3.73-3.727 3.733 3.733 0 0 1 3.73-3.73h128.484a3.73 3.73 0 0 1 3.727 3.73 3.73 3.73 0 0 1-3.727 3.727h-46.742c-4.144 0-7.5 3.355-7.5 7.5s3.356 7.5 7.5 7.5h46.742c10.325 0 18.727-8.402 18.727-18.727 0-10.328-8.399-18.73-18.727-18.73H73.375c-10.328 0-18.73 8.402-18.73 18.73.003 10.325 8.402 18.727 18.73 18.727m0 0" fill="#000000" opacity="1" data-original="#000000" class=""></path><path d="M374.3 43.426h-68.105c-1.914-8.04-9.14-14.047-17.761-14.047h-41.672v-3.242c0-14.41-11.727-26.137-26.14-26.137-14.411 0-26.138 11.727-26.138 26.137v3.242H159.09c-8.621 0-15.848 6.004-17.766 14.047H73.22c-15.735 0-28.54 12.804-28.54 28.539v57.469H22.653C10.16 129.434 0 139.594 0 152.086v337.262C0 501.84 10.16 512 22.652 512h351.649c15.734 0 28.539-12.805 28.539-28.54V273.5c0-4.145-3.356-7.5-7.5-7.5a7.497 7.497 0 0 0-7.5 7.5v209.96c0 7.466-6.074 13.54-13.54 13.54h-98.6c.847-2.344 1.327-5.043 1.327-7.652V234.75c0-8.48-3.117-15.672-8.582-21.137l-75.593-75.597c-5.454-5.45-12.641-8.582-21.137-8.582H59.68v-57.47c0-7.464 6.074-13.538 13.539-13.538h68.086c1.922 8.082 9.265 14.047 17.785 14.047h6.625v7.394c0 10.082 8.2 18.281 18.281 18.281h79.531c10.078 0 18.278-8.199 18.278-18.28v-7.395h6.625c8.539 0 15.867-5.985 17.785-14.047H374.3c7.465 0 13.539 6.074 13.539 13.539V238.5c0 4.145 3.355 7.5 7.5 7.5s7.5-3.355 7.5-7.5V71.965c0-15.735-12.8-28.54-28.54-28.54M257.84 224.219c.82.82 1.672 1.949 2.289 3.031h-76.39a4.53 4.53 0 0 1-4.524-4.527v-76.387c1.12.637 2.23 1.488 3.027 2.289zm-93.625-79.785v78.289c0 10.77 8.758 19.527 19.523 19.527h78.29v247.098c0 4.218-3.43 7.652-7.65 7.652H22.653c-4.218 0-7.652-3.434-7.652-7.652V152.086c0-4.219 3.434-7.652 7.652-7.652zm45.27-118.297c0-6.14 4.995-11.137 11.136-11.137s11.14 4.996 11.14 11.137v3.242h-22.277zm57.32 53.73c0 1.778-1.5 3.278-3.278 3.278h-79.53c-1.778 0-3.278-1.5-3.278-3.278v-7.394h86.086zM159.09 57.473c-1.778 0-3.278-1.5-3.278-3.278v-6.539c0-1.777 1.5-3.277 3.278-3.277h129.344c1.773 0 3.277 1.5 3.277 3.277v6.54c0 1.777-1.504 3.277-3.277 3.277zm0 0" fill="#000000" opacity="1" data-original="#000000" class=""></path></g></g></svg>