<svg height="512" viewBox="0 0 48 48" width="512" xmlns="http://www.w3.org/2000/svg"><g id="Folder_Save" data-name="Folder Save"><path d="m41 37v-19a3 3 0 0 0 -3-3h-15.6787a4 4 0 0 1 -3.473-2.0154l-1.9845-3.473a3 3 0 0 0 -2.6048-1.5116h-10.259a3 3 0 0 0 -3 3v26a3 3 0 0 0 3 3h40a3 3 0 0 1 -3-3z" fill="#4294ff"/><path d="m47 4v33a3 3 0 0 1 -3 3 3 3 0 0 1 -3-3v-19a3 3 0 0 0 -3-3h-15.6787a4 4 0 0 1 -3.473-2.0154l-1.9845-3.473a3 3 0 0 0 -2.6048-1.5116h-8.259v-4a3 3 0 0 1 3-3h35a3 3 0 0 1 3 3z" fill="#376cfb"/><path d="m11 47a2.0027 2.0027 0 0 1 -2-2v-21a2.0027 2.0027 0 0 1 2-2h12.7578a3.0153 3.0153 0 0 1 2.12.8789l6.2432 6.2422a3.0194 3.0194 0 0 1 .879 2.1211v13.7578a2.0027 2.0027 0 0 1 -2 2z" fill="#e6ecff"/><path d="m13 37h16v10h-16z" fill="#376cfb"/><path d="m13 22h9v7h-9z" fill="#d0dbf7"/><path d="m13 26h9v3h-9z" fill="#2946ed"/><g fill="#232328"><path d="m44 0h-35a4.0039 4.0039 0 0 0 -4 4v3h-1a4.0039 4.0039 0 0 0 -4 4v26a4.0039 4.0039 0 0 0 4 4h1a1 1 0 0 0 0-2h-1a2.0027 2.0027 0 0 1 -2-2v-26a2.0027 2.0027 0 0 1 2-2h10.26a1.9994 1.9994 0 0 1 1.7334 1.0068l1.9873 3.4678a5 5 0 0 0 4.3393 2.5254h15.68a2.0027 2.0027 0 0 1 2 2v19a3.9728 3.9728 0 0 0 .5371 2h-3.5371a1 1 0 0 0 0 2h7a4.0039 4.0039 0 0 0 4-4v-33a4.0039 4.0039 0 0 0 -4-4zm2 37a2 2 0 0 1 -4 0v-19a4.0039 4.0039 0 0 0 -4-4h-15.68a3 3 0 0 1 -2.6035-1.5166l-1.988-3.4688a3.9986 3.9986 0 0 0 -3.4685-2.0146h-7.26v-3a2.0027 2.0027 0 0 1 2-2h35a2.0027 2.0027 0 0 1 2 2z"/><path d="m26.5859 22.1719a4.0246 4.0246 0 0 0 -2.8281-1.1719h-12.7578a3.0033 3.0033 0 0 0 -3 3v21a3.0033 3.0033 0 0 0 3 3h20a3.0033 3.0033 0 0 0 3-3v-13.7578a4.0246 4.0246 0 0 0 -1.1719-2.8281zm-12.5859 4.8281h7v1h-7zm7-2h-7v-2h7zm7 21h-14v-8h14zm4-1a1.0006 1.0006 0 0 1 -1 1h-1v-9a1 1 0 0 0 -1-1h-16a1 1 0 0 0 -1 1v9h-1a1.0006 1.0006 0 0 1 -1-1v-21a1.0006 1.0006 0 0 1 1-1h1v6a1 1 0 0 0 1 1h9a1 1 0 0 0 1-1v-6h.7578a2.0147 2.0147 0 0 1 1.4141.5859l6.2422 6.2422a2.0147 2.0147 0 0 1 .5859 1.4141z"/><path d="m23 32h-6a1 1 0 0 0 0 2h6a1 1 0 0 0 0-2z"/><path d="m17 42h8a1 1 0 0 0 0-2h-8a1 1 0 0 0 0 2z"/></g></g></svg>