<svg xmlns="http://www.w3.org/2000/svg" version="1.1" xmlns:xlink="http://www.w3.org/1999/xlink" width="512" height="512" x="0" y="0" viewBox="0 0 32 32" style="enable-background:new 0 0 512 512" xml:space="preserve"><g><path d="M14 6.997v18.001c0 .89 1.077 1.337 1.707.707l9-9a1 1 0 0 0 0-1.414l-9-9C15.091 5.673 14 6.098 14 6.996M1 6.997v18.001c0 .89 1.077 1.337 1.707.707l9-9a1 1 0 0 0 0-1.414l-9-9C2.091 5.673 1 6.098 1 6.996M30 6h-2c-.554 0-1 .446-1 1v18c0 .554.446 1 1 1h2c.554 0 1-.446 1-1V7c0-.554-.446-1-1-1" fill="#4294ff" opacity="1" data-original="#000000"></path></g></svg>